# xmcd
#
# Track frame offsets: 
#        150
#        22065
#        51928
#        82885
#        117452
#        150147
#        190901
#        221221
#        243583
#        269338
#        275557
#        299935
#
# Disc length: 4042 seconds
#
# Revision: 1
# Processed by: cddbd v1.5.2PL0 Copyright (c) Steve Scherf et al.
# Submitted via: ExactAudioCopy v0.95b4
#
DISCID=ba0fc80c
DTITLE=Darek Oleszkiewicz - Like a Dream
DYEAR=2004
DGENRE=Jazz
TTITLE0=November
TTITLE1=You Don't Know What Love Is
TTITLE2=Like A Dream
TTITLE3=Time Cafe
TTITLE4=Blues For Eden
TTITLE5=Precious Moments
TTITLE6=Before The Journey
TTITLE7=Gift
TTITLE8=That Night
TTITLE9=Conclusion Part One
TTITLE10=Conclusion Part Two
TTITLE11=Conclusion Part Three
EXTD=YEAR: 2004
EXTT0=
EXTT1=
EXTT2=
EXTT3=
EXTT4=
EXTT5=
EXTT6=
EXTT7=
EXTT8=
EXTT9=
EXTT10=
EXTT11=
PLAYORDER=
